<svg width="31" height="31" viewBox="0 0 31 31" fill="none" xmlns="http://www.w3.org/2000/svg">
<g clip-path="url(#clip0_4138_1020)">
<path d="M30.2705 12.3223C30.2705 12.3027 30.2705 12.2783 30.2705 12.249C30.2705 12.2197 30.2607 12.1953 30.2412 12.1758C30.2217 12.0977 30.1875 12.0195 30.1387 11.9414C30.0898 11.8633 30.0264 11.7949 29.9482 11.7363L25.6416 8.77734V5.55469C25.6416 5.33984 25.5684 5.15918 25.4219 5.0127C25.2754 4.86621 25.0947 4.79297 24.8799 4.79297H19.958L15.7393 1.86328C15.6025 1.78516 15.4561 1.74609 15.2998 1.74609C15.1436 1.74609 14.9971 1.78516 14.8604 1.86328L10.6416 4.79297H5.71973C5.50488 4.79297 5.32422 4.86621 5.17773 5.0127C5.03125 5.15918 4.95801 5.33984 4.95801 5.55469V8.71875L0.62207 11.707C0.524414 11.7852 0.446289 11.8779 0.387695 11.9854C0.329102 12.0928 0.299805 12.2051 0.299805 12.3223C0.299805 12.3223 0.299805 12.3271 0.299805 12.3369C0.299805 12.3467 0.299805 12.3516 0.299805 12.3516L0.329102 28.9922C0.329102 29.0898 0.348633 29.1875 0.387695 29.2852C0.426758 29.3828 0.475586 29.4707 0.53418 29.5488C0.612305 29.6074 0.700195 29.6562 0.797852 29.6953C0.895508 29.7344 0.993164 29.7539 1.09082 29.7539L29.5381 29.7246C29.7529 29.7246 29.9336 29.6514 30.0801 29.5049C30.2266 29.3584 30.2998 29.1777 30.2998 28.9629L30.2705 12.3223ZM25.6416 10.623L28.1025 12.3516L25.6416 14.0508V10.623ZM15.2998 3.44531L17.2627 4.79297H13.3369L15.2998 3.44531ZM6.48145 6.3457H24.1182V15.1055L18.2002 19.2363L15.7686 17.3613C15.6318 17.2637 15.4756 17.21 15.2998 17.2002C15.124 17.1904 14.9678 17.2441 14.8311 17.3613L12.3994 19.2363L6.48145 15.1641V6.3457ZM4.95801 10.5938V14.0801L2.40918 12.3516L4.95801 10.5938ZM1.85254 13.8164L11.1396 20.2324L1.85254 27.4395V13.8164ZM3.34668 28.2305L15.2998 18.9434L27.2529 28.2012L3.34668 28.2305ZM19.46 20.2324L28.7471 13.7578V27.4395L19.46 20.2324ZM20.5146 9.39258H10.085C9.88965 9.39258 9.71387 9.4707 9.55762 9.62695C9.40137 9.7832 9.32324 9.96875 9.32324 10.1836C9.32324 10.3984 9.40137 10.5791 9.55762 10.7256C9.71387 10.8721 9.88965 10.9453 10.085 10.9453H20.5146C20.71 10.9453 20.8857 10.8721 21.042 10.7256C21.1982 10.5791 21.2764 10.3984 21.2764 10.1836C21.2764 9.96875 21.1982 9.7832 21.042 9.62695C20.8857 9.4707 20.71 9.39258 20.5146 9.39258ZM20.5146 13.4062H10.085C9.88965 13.4062 9.71387 13.4795 9.55762 13.626C9.40137 13.7725 9.32324 13.9531 9.32324 14.168C9.32324 14.3828 9.40137 14.5635 9.55762 14.71C9.71387 14.8564 9.88965 14.9297 10.085 14.9297H20.5146C20.71 14.9297 20.8857 14.8564 21.042 14.71C21.1982 14.5635 21.2764 14.3828 21.2764 14.168C21.2764 13.9531 21.1982 13.7725 21.042 13.626C20.8857 13.4795 20.71 13.4062 20.5146 13.4062Z" fill="#4BAF47"/>
</g>
<defs>
<clipPath id="clip0_4138_1020">
<rect width="30" height="30" fill="white" transform="matrix(1 0 0 -1 0.299805 30.75)"/>
</clipPath>
</defs>
</svg>
