<svg width="41" height="41" viewBox="0 0 41 41" fill="none" xmlns="http://www.w3.org/2000/svg">
<rect x="0.860352" y="0.75" width="40" height="40" rx="20" fill="#F8F7F0"/>
<g clip-path="url(#clip0_4138_1008)">
<path d="M21.1885 13.9277C21.8356 13.9277 22.4554 14.0326 23.0479 14.2422C23.6403 14.4609 24.1621 14.7663 24.6133 15.1582C25.0645 15.5501 25.4268 16.0195 25.7002 16.5664C25.9736 17.1224 26.1104 17.7376 26.1104 18.4121C26.1104 19.0501 26.0283 19.6882 25.8643 20.3262C25.7002 20.9733 25.445 21.5521 25.0986 22.0625C24.7523 22.5729 24.3148 22.9922 23.7861 23.3203C23.2575 23.6393 22.6286 23.7988 21.8994 23.7988C21.5531 23.7988 21.193 23.7145 20.8193 23.5459C20.4456 23.3773 20.1768 23.1335 20.0127 22.8145C19.6937 24.0449 19.459 24.904 19.3086 25.3916C19.1582 25.8792 18.7412 26.5924 18.0576 27.5312C17.9847 27.5586 17.946 27.5723 17.9414 27.5723C17.9368 27.5723 17.9118 27.5449 17.8662 27.4902C17.8389 27.235 17.8115 26.9798 17.7842 26.7246C17.7568 26.4694 17.7432 26.2142 17.7432 25.959C17.7432 25.5397 17.7842 25.0794 17.8662 24.5781C17.9482 24.0859 18.0508 23.5846 18.1738 23.0742C18.2969 22.5638 18.4222 22.0671 18.5498 21.584C18.6865 21.0918 18.8005 20.6406 18.8916 20.2305C18.7913 20.0208 18.723 19.7952 18.6865 19.5537C18.6501 19.3122 18.6318 19.0775 18.6318 18.8496C18.6318 18.3027 18.764 17.8743 19.0283 17.5645C19.2926 17.2546 19.5866 17.0654 19.9102 16.9971C20.2337 16.9287 20.5277 16.9902 20.792 17.1816C21.0654 17.373 21.2021 17.6921 21.2021 18.1387C21.2021 18.6764 21.0814 19.1982 20.8398 19.7041C20.5983 20.21 20.4775 20.7227 20.4775 21.2422C20.4775 21.5977 20.6029 21.887 20.8535 22.1104C21.1042 22.3337 21.3981 22.4453 21.7354 22.4453C22.2093 22.4453 22.6058 22.2949 22.9248 21.9941C23.2347 21.6934 23.4854 21.3288 23.6768 20.9004C23.8682 20.472 24.0049 20.0163 24.0869 19.5332C24.1689 19.0501 24.21 18.6263 24.21 18.2617C24.21 17.7786 24.1279 17.3503 23.9639 16.9766C23.7998 16.6029 23.5742 16.2884 23.2871 16.0332C23 15.778 22.6559 15.5866 22.2549 15.459C21.863 15.3314 21.4346 15.2676 20.9697 15.2676C20.4229 15.2676 19.917 15.3587 19.4521 15.541C18.9873 15.7233 18.5817 15.9808 18.2354 16.3135C17.889 16.6462 17.6201 17.0449 17.4287 17.5098C17.2282 17.9655 17.1279 18.4714 17.1279 19.0273C17.1279 19.556 17.235 19.9639 17.4492 20.251C17.6634 20.5381 17.7705 20.7454 17.7705 20.873C17.7705 20.9824 17.734 21.1715 17.6611 21.4404C17.5882 21.7093 17.4834 21.8438 17.3467 21.8438C17.0186 21.8438 16.6471 21.5817 16.2324 21.0576C15.8177 20.5335 15.6104 19.7884 15.6104 18.8223C15.6104 18.0658 15.7699 17.3867 16.0889 16.7852C16.4079 16.1745 16.8271 15.6595 17.3467 15.2402C17.8662 14.821 18.4632 14.4974 19.1377 14.2695C19.8031 14.0417 20.4867 13.9277 21.1885 13.9277Z" fill="#1F1E17"/>
</g>
<defs>
<clipPath id="clip0_4138_1008">
<rect width="10.5" height="14" fill="white" transform="matrix(1 0 0 -1 15.6104 27.75)"/>
</clipPath>
</defs>
</svg>
