<svg width="41" height="41" viewBox="0 0 41 41" fill="none" xmlns="http://www.w3.org/2000/svg">
<rect x="0.860352" y="0.75" width="40" height="40" rx="20" fill="#F8F7F0"/>
<g clip-path="url(#clip0_4138_1005)">
<path d="M27.4229 20.75C27.4229 21.5977 27.277 22.3997 26.9854 23.1562C26.6937 23.9128 26.2904 24.5872 25.7754 25.1797C25.2604 25.7721 24.6566 26.2689 23.9639 26.6699C23.262 27.0618 22.5101 27.3216 21.708 27.4492V22.7051H23.2803L23.5811 20.75H21.708V19.4785C21.708 19.2051 21.7855 18.959 21.9404 18.7402C22.0954 18.5215 22.3825 18.4121 22.8018 18.4121H23.6631V16.7441C23.6631 16.7441 23.5036 16.7236 23.1846 16.6826C22.8656 16.6416 22.5192 16.6211 22.1455 16.6211C21.3708 16.6211 20.7487 16.8467 20.2793 17.2979C19.8099 17.749 19.5752 18.403 19.5752 19.2598V20.75H17.8525V22.7051H19.5752V27.4492C18.7731 27.3216 18.0212 27.0618 17.3193 26.6699C16.6266 26.2689 16.0228 25.7721 15.5078 25.1797C14.9928 24.5872 14.5895 23.9128 14.2979 23.1562C14.0062 22.3997 13.8604 21.5977 13.8604 20.75C13.8604 19.8112 14.0381 18.9316 14.3936 18.1113C14.749 17.291 15.2344 16.5732 15.8496 15.958C16.4648 15.3428 17.1826 14.8574 18.0029 14.502C18.8232 14.1465 19.7028 13.9688 20.6416 13.9688C21.5804 13.9688 22.46 14.1465 23.2803 14.502C24.1006 14.8574 24.8184 15.3428 25.4336 15.958C26.0488 16.5732 26.5342 17.291 26.8896 18.1113C27.2451 18.9316 27.4229 19.8112 27.4229 20.75Z" fill="#1F1E17"/>
</g>
<defs>
<clipPath id="clip0_4138_1005">
<rect width="14" height="14" fill="white" transform="matrix(1 0 0 -1 13.8604 27.75)"/>
</clipPath>
</defs>
</svg>
