<svg width="15" height="13" viewBox="0 0 15 13" fill="none" xmlns="http://www.w3.org/2000/svg">
<path d="M10.7149 4.90912C10.7149 5.46791 10.5752 5.99706 10.2958 6.49658C10.0249 6.98763 9.65022 7.4173 9.17187 7.78559C8.69351 8.15388 8.13261 8.44386 7.48916 8.65552C6.84571 8.86718 6.15993 8.97301 5.43182 8.97301C4.91537 8.97301 4.41796 8.91798 3.93961 8.80791C3.46126 8.69785 3.01465 8.54122 2.5998 8.33803C2.32887 8.49889 2.00291 8.64494 1.62192 8.77617C1.24093 8.90739 0.817613 8.97301 0.351959 8.97301C0.309627 8.97301 0.271528 8.96243 0.237662 8.94126C0.203796 8.92009 0.178397 8.88835 0.161464 8.84601C0.144531 8.81215 0.140298 8.77405 0.148764 8.73172C0.157231 8.68938 0.174164 8.65552 0.199563 8.63012C0.20803 8.63012 0.32021 8.49466 0.536104 8.22373C0.751998 7.9528 0.944609 7.62685 1.11394 7.24586C0.809146 6.91567 0.572086 6.55161 0.402758 6.15369C0.233429 5.75576 0.148764 5.34091 0.148764 4.90912C0.148764 4.35034 0.288461 3.82118 0.567853 3.32166C0.838779 2.83061 1.21342 2.40094 1.69177 2.03265C2.17013 1.66436 2.73103 1.37438 3.37448 1.16272C4.01793 0.951062 4.70371 0.845232 5.43182 0.845232C6.15993 0.845232 6.84571 0.951062 7.48916 1.16272C8.13261 1.37438 8.69351 1.66436 9.17187 2.03265C9.65022 2.40094 10.0249 2.83061 10.2958 3.32166C10.5752 3.82118 10.7149 4.35034 10.7149 4.90912ZM13.8136 10.497C13.9829 10.878 14.1755 11.2039 14.3914 11.4748C14.6073 11.7458 14.7195 11.8812 14.728 11.8812C14.7534 11.9151 14.7703 11.9511 14.7788 11.9892C14.7872 12.0273 14.783 12.0633 14.7661 12.0971C14.7491 12.1395 14.7237 12.1712 14.6899 12.1924C14.656 12.2135 14.6179 12.2241 14.5756 12.2241C14.1099 12.2241 13.6866 12.1585 13.3056 12.0273C12.9246 11.896 12.5987 11.75 12.3277 11.5891C11.9129 11.7923 11.4684 11.949 10.9943 12.059C10.5201 12.1691 10.0206 12.2241 9.49571 12.2241C8.94539 12.2241 8.42047 12.1649 7.92095 12.0463C7.42143 11.9193 6.96001 11.7458 6.53669 11.5256C6.11337 11.3055 5.74084 11.0431 5.41912 10.7383C5.08893 10.4335 4.82647 10.099 4.63174 9.73499C4.75874 9.75192 4.88997 9.76462 5.02543 9.77309C5.16089 9.78155 5.29636 9.78579 5.43182 9.78579C6.27 9.78579 7.06161 9.65879 7.80665 9.4048C8.54323 9.1508 9.18668 8.80156 9.737 8.35708C10.2873 7.91259 10.7233 7.39402 11.0451 6.80137C11.3668 6.20872 11.5277 5.57797 11.5277 4.90912C11.5277 4.82446 11.5255 4.73979 11.5213 4.65513C11.5171 4.57046 11.5065 4.4858 11.4896 4.40113C11.9721 4.55353 12.4166 4.75249 12.823 4.99802C13.2209 5.25201 13.5659 5.54199 13.858 5.86794C14.1501 6.1939 14.3766 6.55161 14.5375 6.94107C14.6983 7.33052 14.7788 7.73691 14.7788 8.16023C14.7788 8.59202 14.6941 9.00688 14.5248 9.4048C14.3554 9.80272 14.1184 10.1668 13.8136 10.497Z" fill="#EEC044"/>
</svg>
