<svg width="14" height="21" viewBox="0 0 14 21" fill="none" xmlns="http://www.w3.org/2000/svg">
<g clip-path="url(#clip0_4138_728)">
<path d="M6.72078 4.23959C7.59227 4.23959 8.40875 4.40458 9.17025 4.73456C9.93174 5.06454 10.598 5.51509 11.1692 6.08621C11.7403 6.65733 12.1908 7.32363 12.5208 8.08512C12.8508 8.84662 13.0158 9.6631 13.0158 10.5346C13.0158 11.4061 12.8508 12.2226 12.5208 12.9841C12.1908 13.7455 11.7403 14.4119 11.1692 14.983C10.598 15.5541 9.93174 16.0046 9.17025 16.3346C8.40875 16.6646 7.59227 16.8296 6.72078 16.8296C5.8493 16.8296 5.03281 16.6646 4.27132 16.3346C3.50982 16.0046 2.84352 15.5541 2.2724 14.983C1.70128 14.4119 1.25073 13.7455 0.920751 12.9841C0.590771 12.2226 0.425781 11.4061 0.425781 10.5346C0.425781 9.6631 0.590771 8.84662 0.920751 8.08512C1.25073 7.32363 1.70128 6.65733 2.2724 6.08621C2.84352 5.51509 3.50982 5.06454 4.27132 4.73456C5.03281 4.40458 5.8493 4.23959 6.72078 4.23959ZM6.72078 6.67636C6.10313 6.67636 5.57643 6.89424 5.14069 7.32998C4.70494 7.76572 4.48707 8.29242 4.48707 8.91007C4.48707 9.52773 4.70494 10.0544 5.14069 10.4902C5.57643 10.9259 6.10313 11.1438 6.72078 11.1438C7.33844 11.1438 7.86513 10.9259 8.30088 10.4902C8.73662 10.0544 8.95449 9.52773 8.95449 8.91007C8.95449 8.29242 8.73662 7.76572 8.30088 7.32998C7.86513 6.89424 7.33844 6.67636 6.72078 6.67636ZM6.72078 15.4081C7.09307 15.4081 7.45266 15.3658 7.79956 15.2812C8.15492 15.2051 8.48913 15.0908 8.80219 14.9386C9.11525 14.7863 9.41139 14.6043 9.6906 14.3928C9.96981 14.1813 10.2194 13.9444 10.4394 13.6821C10.2025 13.2337 9.86194 12.8677 9.41773 12.5843C8.97353 12.3008 8.48067 12.1591 7.93917 12.1591C7.90532 12.1591 7.8736 12.1612 7.84398 12.1655C7.81437 12.1697 7.78687 12.176 7.76149 12.1845C7.59227 12.2353 7.42093 12.2776 7.24748 12.3114C7.07403 12.3452 6.89846 12.3622 6.72078 12.3622C6.5431 12.3622 6.36753 12.3452 6.19408 12.3114C6.02063 12.2776 5.8493 12.2353 5.68008 12.1845C5.65469 12.176 5.62719 12.1697 5.59758 12.1655C5.56797 12.1612 5.53624 12.1591 5.50239 12.1591C4.96089 12.1591 4.46803 12.3008 4.02383 12.5843C3.57963 12.8677 3.23907 13.2337 3.00216 13.6821C3.22215 13.9444 3.47175 14.1813 3.75096 14.3928C4.03018 14.6043 4.32631 14.7863 4.63937 14.9386C4.95243 15.0908 5.28664 15.2051 5.642 15.2812C5.9889 15.3658 6.3485 15.4081 6.72078 15.4081Z" fill="#EEC044"/>
</g>
<defs>
<clipPath id="clip0_4138_728">
<rect width="12.59" height="20" fill="white" transform="matrix(1 0 0 -1 0.425781 20.5347)"/>
</clipPath>
</defs>
</svg>
