<svg width="41" height="41" viewBox="0 0 41 41" fill="none" xmlns="http://www.w3.org/2000/svg">
<rect x="0.860352" y="0.75" width="40" height="40" rx="20" fill="#F8F7F0"/>
<g clip-path="url(#clip0_4138_1011)">
<path d="M19.9854 17.6055C20.4229 17.6055 20.833 17.6875 21.2158 17.8516C21.5986 18.0156 21.9313 18.2389 22.2139 18.5215C22.4964 18.804 22.7197 19.1367 22.8838 19.5195C23.0479 19.9023 23.1299 20.3125 23.1299 20.75C23.1299 21.1784 23.0479 21.584 22.8838 21.9668C22.7197 22.3496 22.4964 22.6846 22.2139 22.9717C21.9313 23.2588 21.5986 23.4844 21.2158 23.6484C20.833 23.8125 20.4229 23.8945 19.9854 23.8945C19.557 23.8945 19.1514 23.8125 18.7686 23.6484C18.3857 23.4844 18.0508 23.2588 17.7637 22.9717C17.4766 22.6846 17.251 22.3496 17.0869 21.9668C16.9229 21.584 16.8408 21.1784 16.8408 20.75C16.8408 20.3125 16.9229 19.9023 17.0869 19.5195C17.251 19.1367 17.4766 18.804 17.7637 18.5215C18.0508 18.2389 18.3857 18.0156 18.7686 17.8516C19.1514 17.6875 19.557 17.6055 19.9854 17.6055ZM19.9854 22.7871C20.5505 22.7871 21.0335 22.5889 21.4346 22.1924C21.8356 21.7959 22.0361 21.3151 22.0361 20.75C22.0361 20.1849 21.8356 19.7018 21.4346 19.3008C21.0335 18.8997 20.5505 18.6992 19.9854 18.6992C19.4202 18.6992 18.9395 18.8997 18.543 19.3008C18.1465 19.7018 17.9482 20.1849 17.9482 20.75C17.9482 21.3151 18.1488 21.7959 18.5498 22.1924C18.9508 22.5889 19.4294 22.7871 19.9854 22.7871ZM23.9912 17.4824C23.9912 17.6829 23.9206 17.8538 23.7793 17.9951C23.638 18.1364 23.4626 18.207 23.2529 18.207C23.0524 18.207 22.8815 18.1364 22.7402 17.9951C22.599 17.8538 22.5283 17.6829 22.5283 17.4824C22.5283 17.2728 22.599 17.0973 22.7402 16.9561C22.8815 16.8148 23.0524 16.7441 23.2529 16.7441C23.4626 16.7441 23.638 16.8148 23.7793 16.9561C23.9206 17.0973 23.9912 17.2728 23.9912 17.4824ZM26.0693 18.2207C26.0876 18.4759 26.1012 18.8359 26.1104 19.3008C26.1104 19.7565 26.1104 20.2373 26.1104 20.7432C26.1104 21.249 26.1104 21.7344 26.1104 22.1992C26.1012 22.6641 26.0876 23.0241 26.0693 23.2793C26.0511 23.7624 25.9714 24.2204 25.8301 24.6533C25.6888 25.0863 25.4404 25.4805 25.085 25.8359C24.7295 26.2005 24.3353 26.4512 23.9023 26.5879C23.4694 26.7246 23.0068 26.8066 22.5146 26.834C22.2594 26.8431 21.8994 26.8522 21.4346 26.8613C20.9788 26.8704 20.498 26.875 19.9922 26.875C19.4863 26.875 19.001 26.8704 18.5361 26.8613C18.0713 26.8522 17.7113 26.8431 17.4561 26.834C16.9639 26.8066 16.5036 26.7246 16.0752 26.5879C15.6468 26.4512 15.2503 26.2005 14.8857 25.8359C14.5303 25.4805 14.2842 25.0863 14.1475 24.6533C14.0107 24.2204 13.9287 23.7624 13.9014 23.2793C13.8831 23.0241 13.874 22.6641 13.874 22.1992C13.8649 21.7344 13.8604 21.249 13.8604 20.7432C13.8604 20.2373 13.8649 19.752 13.874 19.2871C13.874 18.8314 13.8831 18.4759 13.9014 18.2207C13.9287 17.7285 14.0107 17.266 14.1475 16.833C14.2842 16.4001 14.5303 16.0059 14.8857 15.6504C15.2503 15.2949 15.6491 15.0465 16.082 14.9053C16.515 14.764 16.973 14.6842 17.4561 14.666C17.7113 14.6478 18.0713 14.6341 18.5361 14.625C19.001 14.625 19.4863 14.625 19.9922 14.625C20.498 14.625 20.9788 14.625 21.4346 14.625C21.8994 14.6341 22.2594 14.6478 22.5146 14.666C23.0068 14.6934 23.4694 14.7754 23.9023 14.9121C24.3353 15.0488 24.7295 15.2949 25.085 15.6504C25.4404 16.015 25.6888 16.4115 25.8301 16.8398C25.9714 17.2682 26.0511 17.7285 26.0693 18.2207ZM24.7705 24.3594C24.8434 24.1589 24.8981 23.8991 24.9346 23.5801C24.971 23.2611 24.9961 22.9284 25.0098 22.582C25.0234 22.2357 25.0257 21.8984 25.0166 21.5703C25.0166 21.2422 25.0166 20.9688 25.0166 20.75C25.0166 20.5221 25.0166 20.2441 25.0166 19.916C25.0257 19.5879 25.0234 19.2507 25.0098 18.9043C24.9961 18.5579 24.971 18.2298 24.9346 17.9199C24.8981 17.6009 24.8434 17.3411 24.7705 17.1406C24.6611 16.8672 24.5062 16.6302 24.3057 16.4297C24.1051 16.2292 23.8682 16.0742 23.5947 15.9648C23.3942 15.8919 23.1344 15.8372 22.8154 15.8008C22.5055 15.7643 22.1774 15.7393 21.8311 15.7256C21.4847 15.7119 21.1475 15.7096 20.8193 15.7188C20.4912 15.7188 20.2132 15.7188 19.9854 15.7188C19.7666 15.7188 19.4932 15.7188 19.165 15.7188C18.8369 15.7096 18.4997 15.7119 18.1533 15.7256C17.807 15.7393 17.4743 15.7643 17.1553 15.8008C16.8363 15.8372 16.5765 15.8919 16.376 15.9648C16.1025 16.0742 15.8656 16.2292 15.665 16.4297C15.4645 16.6302 15.3141 16.8672 15.2139 17.1406C15.1318 17.3411 15.0726 17.6009 15.0361 17.9199C14.9997 18.2298 14.9769 18.5579 14.9678 18.9043C14.9587 19.2507 14.9541 19.5879 14.9541 19.916C14.9632 20.2441 14.9678 20.5221 14.9678 20.75C14.9678 20.9688 14.9632 21.2422 14.9541 21.5703C14.9541 21.8984 14.9587 22.2357 14.9678 22.582C14.9769 22.9284 14.9997 23.2611 15.0361 23.5801C15.0726 23.8991 15.1318 24.1589 15.2139 24.3594C15.3232 24.6328 15.4782 24.8675 15.6787 25.0635C15.8792 25.2594 16.1117 25.4121 16.376 25.5215C16.5765 25.6035 16.8363 25.6628 17.1553 25.6992C17.4743 25.7357 17.807 25.7585 18.1533 25.7676C18.4997 25.7767 18.8369 25.7812 19.165 25.7812C19.4932 25.7721 19.7666 25.7676 19.9854 25.7676C20.2132 25.7676 20.4912 25.7721 20.8193 25.7812C21.1475 25.7812 21.4847 25.7767 21.8311 25.7676C22.1774 25.7585 22.5055 25.7357 22.8154 25.6992C23.1344 25.6628 23.3942 25.6035 23.5947 25.5215C23.8682 25.4121 24.1051 25.2572 24.3057 25.0566C24.5062 24.8561 24.6611 24.6237 24.7705 24.3594Z" fill="#1F1E17"/>
</g>
<defs>
<clipPath id="clip0_4138_1011">
<rect width="14" height="14" fill="white" transform="matrix(1 0 0 -1 13.8604 27.75)"/>
</clipPath>
</defs>
</svg>
