<svg width="41" height="41" viewBox="0 0 41 41" fill="none" xmlns="http://www.w3.org/2000/svg">
<rect x="0.860352" y="0.75" width="40" height="40" rx="20" fill="#F8F7F0"/>
<g clip-path="url(#clip0_4138_1002)">
<path d="M26.4248 17.8926C26.4248 17.9564 26.4248 18.0202 26.4248 18.084C26.4248 18.1478 26.4248 18.2116 26.4248 18.2754C26.4248 19.2233 26.2471 20.1803 25.8916 21.1465C25.5361 22.1126 25.0143 22.9876 24.3262 23.7715C23.638 24.5553 22.7835 25.1979 21.7627 25.6992C20.751 26.1914 19.5843 26.4375 18.2627 26.4375C17.8617 26.4375 17.4652 26.4102 17.0732 26.3555C16.6813 26.2917 16.3008 26.2051 15.9316 26.0957C15.5625 25.9863 15.2048 25.8542 14.8584 25.6992C14.512 25.5352 14.1794 25.3529 13.8604 25.1523C13.9788 25.1615 14.0951 25.1683 14.209 25.1729C14.3229 25.1774 14.4391 25.1797 14.5576 25.1797C15.223 25.1797 15.8587 25.0726 16.4648 24.8584C17.071 24.6442 17.6201 24.3457 18.1123 23.9629C17.4834 23.9447 16.9251 23.7487 16.4375 23.375C15.9499 23.0013 15.6149 22.5319 15.4326 21.9668C15.5238 21.9759 15.6126 21.985 15.6992 21.9941C15.7858 22.0033 15.8792 22.0078 15.9795 22.0078C16.1071 22.0078 16.2347 22.001 16.3623 21.9873C16.4899 21.9736 16.613 21.9486 16.7314 21.9121C16.0752 21.7754 15.5283 21.4473 15.0908 20.9277C14.6533 20.4082 14.4346 19.7975 14.4346 19.0957V19.0684C14.626 19.1686 14.8311 19.2507 15.0498 19.3145C15.2686 19.3783 15.4919 19.4147 15.7197 19.4238C15.3369 19.1686 15.0293 18.8314 14.7969 18.4121C14.5645 17.9928 14.4482 17.5326 14.4482 17.0312C14.4482 16.7669 14.4824 16.514 14.5508 16.2725C14.6191 16.0309 14.7126 15.8053 14.8311 15.5957C15.1865 16.0241 15.583 16.416 16.0205 16.7715C16.458 17.127 16.9274 17.4346 17.4287 17.6943C17.93 17.9541 18.4632 18.1615 19.0283 18.3164C19.5843 18.4714 20.1585 18.5625 20.751 18.5898C20.7327 18.4805 20.7168 18.3711 20.7031 18.2617C20.6895 18.1523 20.6826 18.043 20.6826 17.9336C20.6826 17.5417 20.7555 17.168 20.9014 16.8125C21.0563 16.4661 21.2637 16.1631 21.5234 15.9033C21.7832 15.6436 22.0863 15.4408 22.4326 15.2949C22.779 15.14 23.1527 15.0625 23.5537 15.0625C23.9639 15.0625 24.349 15.1445 24.709 15.3086C25.069 15.4727 25.3812 15.6914 25.6455 15.9648C25.9736 15.9102 26.2904 15.8236 26.5957 15.7051C26.901 15.5866 27.1904 15.4453 27.4639 15.2812C27.3636 15.6094 27.2041 15.9102 26.9854 16.1836C26.7666 16.457 26.5068 16.6803 26.2061 16.8535C26.4977 16.8262 26.7826 16.7738 27.0605 16.6963C27.3385 16.6188 27.6051 16.5254 27.8604 16.416C27.6689 16.6986 27.4502 16.9652 27.2041 17.2158C26.958 17.4665 26.6982 17.6921 26.4248 17.8926Z" fill="#1F1E17"/>
</g>
<defs>
<clipPath id="clip0_4138_1002">
<rect width="14" height="14" fill="white" transform="matrix(1 0 0 -1 13.8604 27.75)"/>
</clipPath>
</defs>
</svg>
